<svg width="200" height="24" viewBox="0 0 200 24" fill="none" xmlns="http://www.w3.org/2000/svg">
<path d="M15.1943 23.1871C15.2369 23.2032 15.2732 23.2321 15.2981 23.2695C15.3229 23.3069 15.3351 23.351 15.3329 23.3955C15.3307 23.4401 15.3141 23.4828 15.2857 23.5177C15.2572 23.5526 15.2181 23.5778 15.1741 23.5899C14.1507 23.8588 13.0953 23.9945 12.0353 23.9936C10.4548 23.9936 8.88966 23.6897 7.4294 23.0993C5.96914 22.509 4.64233 21.6436 3.52473 20.5528C2.40713 19.4619 1.52064 18.1669 0.915857 16.7417C0.311077 15.3164 -0.000120143 13.7888 3.47945e-08 12.2462C0.000120203 10.7038 0.311517 9.17643 0.916415 7.75144C1.52131 6.32645 2.40786 5.03169 3.52545 3.94109C4.64303 2.8505 5.96976 1.98543 7.42989 1.39527C8.89003 0.805106 10.455 0.501414 12.0353 0.501531C13.0953 0.500564 14.1507 0.636306 15.1741 0.905228C15.2182 0.917009 15.2574 0.942094 15.286 0.976906C15.3147 1.01172 15.3313 1.05448 15.3335 1.09906C15.3357 1.14364 15.3235 1.18777 15.2985 1.22514C15.2735 1.26251 15.237 1.29121 15.1943 1.30714C12.9408 2.16921 11.0059 3.67421 9.64197 5.62576C8.27808 7.57731 7.54858 9.88479 7.54864 12.2471C7.54858 14.6094 8.27808 16.9169 9.64197 18.8684C11.0059 20.82 12.9408 22.325 15.1943 23.1871Z" fill="white"/>
<path d="M32.1876 12.031C32.3111 18.6401 26.7565 24.0882 19.9811 23.9989C18.9795 23.9863 17.9835 23.8512 17.0162 23.597C16.9722 23.5851 16.9331 23.5599 16.9045 23.5251C16.8759 23.4903 16.8593 23.4476 16.8569 23.403C16.8546 23.3585 16.8667 23.3143 16.8915 23.2768C16.9163 23.2394 16.9526 23.2105 16.9952 23.1942C19.2486 22.3318 21.1833 20.8266 22.547 18.8749C23.9107 16.9232 24.6401 14.6157 24.6399 12.2534C24.64 9.89115 23.9106 7.58375 22.5469 5.63221C21.1832 3.68067 19.2485 2.17561 16.9952 1.31339C16.9524 1.29747 16.916 1.26877 16.8909 1.2314C16.8659 1.19402 16.8537 1.1499 16.8559 1.10531C16.8581 1.06073 16.8748 1.01797 16.9034 0.983163C16.932 0.94835 16.9712 0.923265 17.0153 0.911484C18.0388 0.642562 19.0942 0.50682 20.1541 0.507787C23.3064 0.507929 26.3329 1.71508 28.5831 3.86981C30.8332 6.02454 32.1275 8.95485 32.1876 12.031Z" fill="white"/>
<path d="M47.9182 7.37863H55.2216V5.05649H40.9341V7.37863H46.7285V21.8206H49.4281V8.19763C49.0039 7.91097 48.5157 7.72726 48.0042 7.66175C47.9553 7.65527 47.9104 7.6317 47.8779 7.5954C47.8455 7.55911 47.8276 7.51256 47.8276 7.46437C47.8285 7.44146 47.8384 7.41978 47.8553 7.40382C47.8722 7.38786 47.8947 7.37884 47.9182 7.37863Z" fill="white"/>
<path d="M55.399 16.5511H66.6868C66.7041 16.3439 66.7115 16.0563 66.7115 15.6884C66.6797 13.8521 66.091 12.3826 64.9453 11.2799C63.7996 10.1771 62.3355 9.62608 60.5529 9.62668C58.7373 9.62668 57.224 10.2295 56.0131 11.4353C54.8021 12.641 54.1963 14.1295 54.1957 15.9009C54.1957 17.6419 54.8057 19.1111 56.0259 20.3085C57.246 21.5059 58.7556 22.1046 60.5547 22.1046C61.5758 22.1095 62.5856 21.8961 63.5132 21.4794C64.3979 21.0968 65.1639 20.4937 65.7341 19.7307L64.1638 18.4365C63.3097 19.5083 62.1067 20.0442 60.5547 20.0442C59.5237 20.0442 58.6363 19.7286 57.8927 19.0974C57.3639 18.6517 56.9747 18.0694 56.7698 17.4175C56.2629 17.1201 55.7312 16.9504 55.4887 16.8316C55.3972 16.7869 55.3139 16.7342 55.3139 16.6333C55.3156 16.6119 55.3252 16.5918 55.3408 16.5767C55.3564 16.5617 55.3771 16.5526 55.399 16.5511ZM57.9613 12.4901C58.672 11.8905 59.535 11.591 60.5501 11.5916C61.5488 11.5916 62.3879 11.883 63.0676 12.4659C63.7472 13.0489 64.1931 13.8595 64.4054 14.8979H56.6271C56.804 13.8923 57.2488 13.0896 57.9613 12.4901Z" fill="white"/>
<path d="M76.2733 19.318C75.7171 19.6287 75.0837 19.7832 74.4431 19.7646C73.345 19.7646 72.4244 19.3934 71.6814 18.6509C70.9383 17.9084 70.5662 16.9941 70.565 15.9081C70.565 14.8059 70.9371 13.8795 71.6814 13.1286C72.4257 12.3778 73.3463 12.0104 74.4431 12.0265C75.8024 12.0265 76.8498 12.5856 77.5856 13.7038L79.6711 12.2185C79.0823 11.419 78.3085 10.7663 77.4126 10.3135C76.4978 9.8421 75.4776 9.59909 74.4431 9.60614C72.674 9.60614 71.1601 10.2212 69.9015 11.4513C68.643 12.6815 68.0131 14.1587 68.0118 15.8831C68.0118 17.6098 68.6417 19.0834 69.9015 20.3041C71.1613 21.5247 72.6752 22.1353 74.4431 22.1359C75.476 22.1432 76.4952 21.905 77.4126 21.4419C78.3095 20.9957 79.0838 20.3464 79.6711 19.5485L77.6094 18.0632C77.2835 18.5878 76.823 19.0204 76.2733 19.318Z" fill="white"/>
<path d="M91.787 11.3165C90.8109 10.3013 89.5221 9.79516 87.9207 9.79814C86.3492 9.79814 85.0806 10.3653 84.1148 11.4995V3.85703H81.5388V21.8206H84.1148V16C84.1148 14.7383 84.422 13.752 85.0363 13.0411C85.6507 12.3302 86.4648 11.9744 87.4787 11.9738C88.428 11.9738 89.197 12.3057 89.7857 12.9696C90.3744 13.6335 90.6691 14.6118 90.6697 15.9045V21.8206H93.2466V15.6848C93.2466 13.7877 92.76 12.3317 91.787 11.3165Z" fill="white"/>
<path d="M138.02 16.2635C137.529 17.2052 136.781 17.9966 135.86 18.5508C134.933 19.1169 133.86 19.4122 132.767 19.402C131.081 19.402 129.666 18.8229 128.521 17.6648C127.376 16.5067 126.802 15.0974 126.8 13.4368C126.8 11.7743 127.372 10.365 128.518 9.20867C129.664 8.05236 131.079 7.47272 132.764 7.46975C133.847 7.46241 134.911 7.75306 135.832 8.30839C136.745 8.84917 137.491 9.62063 137.992 10.5412L140.422 9.31942C139.704 7.96469 138.617 6.82932 137.281 6.03805C135.923 5.22358 134.358 4.79976 132.764 4.81536C130.324 4.81536 128.266 5.65401 126.59 7.33131C124.914 9.00861 124.076 11.0452 124.074 13.4412C124.074 15.8372 124.913 17.8732 126.59 19.5493C128.267 21.2255 130.325 22.0641 132.764 22.0653C134.375 22.0818 135.957 21.6479 137.323 20.8149C138.668 20.0083 139.759 18.8564 140.478 17.4853L138.02 16.2635Z" fill="white"/>
<path d="M152.894 11.4352C151.635 10.2146 150.105 9.60373 148.305 9.60254C146.521 9.60254 144.999 10.2134 143.739 11.4352C142.479 12.657 141.849 14.1385 141.848 15.8795C141.848 17.6062 142.478 19.0798 143.739 20.3005C144.999 21.5211 146.521 22.1317 148.305 22.1323C150.088 22.1323 151.613 21.5217 152.881 20.3005C154.148 19.0793 154.783 17.6056 154.783 15.8795C154.784 14.139 154.155 12.6576 152.894 11.4352ZM151.005 18.6589C150.662 19.0215 150.244 19.3076 149.778 19.4978C149.312 19.6881 148.809 19.7778 148.304 19.761C147.801 19.7786 147.3 19.6891 146.836 19.4988C146.371 19.3085 145.955 19.0219 145.616 18.6589C144.887 17.9087 144.523 16.9905 144.524 15.9045C144.524 14.8023 144.888 13.8759 145.616 13.125C145.955 12.7623 146.372 12.4759 146.836 12.2856C147.3 12.0954 147.801 12.0057 148.304 12.0229C148.809 12.0067 149.311 12.0967 149.777 12.2868C150.243 12.477 150.661 12.7629 151.004 13.125C151.74 13.8753 152.108 14.8018 152.109 15.9045C152.11 16.9893 151.742 17.9075 151.005 18.6589Z" fill="white"/>
<path d="M170.618 6.15327C171.24 6.15327 171.985 6.32087 172.851 6.6561L173.196 4.21249C172.098 3.89275 171.173 3.73288 170.421 3.73288C169.014 3.73288 167.877 4.04459 167.009 4.66799C166.044 4.04518 164.89 3.73348 163.548 3.73288C162.906 3.72794 162.266 3.80847 161.646 3.97224C161.03 4.14894 160.449 4.42485 159.926 4.78856C159.362 5.17082 158.916 5.75761 158.589 6.54892C158.262 7.34024 158.098 8.29291 158.098 9.40694V9.958H155.692V12.1623H158.096V21.817H160.675V13.3376C160.229 12.8747 159.643 12.562 159.004 12.4445C158.955 12.4378 158.911 12.414 158.879 12.3777C158.847 12.3414 158.829 12.295 158.83 12.2471C158.83 12.2234 158.839 12.2007 158.857 12.1839C158.874 12.1672 158.897 12.1578 158.921 12.1578H165.02V21.8125H167.598V13.2992C167.156 12.8601 166.586 12.5642 165.966 12.4516C165.917 12.4449 165.872 12.4213 165.84 12.385C165.808 12.3487 165.79 12.3023 165.79 12.2542C165.79 12.2306 165.8 12.2078 165.817 12.1911C165.834 12.1743 165.857 12.1649 165.882 12.1649H171.653V9.96068H167.603V9.36229C167.6 7.22294 168.605 6.15327 170.618 6.15327ZM165.02 9.41051V9.96157H160.677V9.36318C160.677 7.22323 161.7 6.15327 163.745 6.15327C164.36 6.15441 164.97 6.27588 165.537 6.51052C165.194 7.34351 165.022 8.31018 165.02 9.41051Z" fill="white"/>
<path d="M174.763 16.5511H186.058C186.073 16.3439 186.082 16.0563 186.082 15.6884C186.049 13.8521 185.46 12.3826 184.315 11.2799C183.17 10.1771 181.706 9.62608 179.923 9.62668C178.108 9.62668 176.594 10.2295 175.382 11.4353C174.17 12.641 173.565 14.1295 173.567 15.9009C173.567 17.6419 174.177 19.1111 175.397 20.3085C176.617 21.5059 178.126 22.1046 179.926 22.1046C180.947 22.1097 181.957 21.8963 182.884 21.4794C183.769 21.0966 184.535 20.4935 185.105 19.7307L183.535 18.4365C182.684 19.5083 181.481 20.0442 179.926 20.0442C178.895 20.0442 178.008 19.7286 177.263 19.0974C176.735 18.6522 176.346 18.0709 176.141 17.4201C175.631 17.1218 175.099 16.9504 174.86 16.8316C174.768 16.7869 174.683 16.7342 174.683 16.6333C174.685 16.6126 174.693 16.5931 174.708 16.5781C174.723 16.5631 174.742 16.5536 174.763 16.5511ZM177.331 12.4901C178.043 11.8905 178.906 11.591 179.92 11.5916C180.919 11.5916 181.758 11.883 182.437 12.4659C183.117 13.0489 183.563 13.8595 183.774 14.8979H175.996C176.174 13.8923 176.619 13.0896 177.331 12.4901Z" fill="white"/>
<path d="M188.68 16.5511H199.975C199.992 16.3439 200 16.0563 200 15.6884C199.967 13.8521 199.378 12.3826 198.233 11.2799C197.088 10.1771 195.624 9.62608 193.84 9.62668C192.026 9.62668 190.513 10.2295 189.301 11.4353C188.088 12.641 187.483 14.1295 187.484 15.9009C187.484 17.6419 188.094 19.1111 189.314 20.3085C190.535 21.5059 192.044 22.1046 193.843 22.1046C194.864 22.1096 195.874 21.8962 196.802 21.4794C197.686 21.0968 198.452 20.4937 199.023 19.7307L197.445 18.4428C196.591 19.5145 195.388 20.0504 193.836 20.0504C192.805 20.0504 191.918 19.7348 191.174 19.1037C190.646 18.6597 190.257 18.0788 190.053 17.4282C189.544 17.1299 189.01 16.9584 188.766 16.8396C188.675 16.795 188.59 16.7423 188.59 16.6413C188.59 16.6296 188.592 16.618 188.596 16.6071C188.601 16.5962 188.607 16.5863 188.616 16.5779C188.624 16.5695 188.634 16.5629 188.645 16.5583C188.656 16.5537 188.668 16.5512 188.68 16.5511ZM191.249 12.4901C191.96 11.8905 192.823 11.591 193.838 11.5916C194.836 11.5916 195.676 11.883 196.355 12.4659C197.035 13.0489 197.481 13.8595 197.693 14.8979H189.915C190.092 13.8923 190.536 13.0896 191.249 12.4901Z" fill="white"/>
<path d="M115.562 18.3124C116.555 16.9618 117.302 15.4545 117.771 13.8565L114.974 13.8324C114.775 14.6612 114.382 15.4996 113.794 16.3475L110.013 12.4427C111.126 11.6091 111.94 10.8178 112.455 10.0688C112.967 9.33542 113.237 8.46743 113.23 7.58049C113.23 6.58912 112.841 5.71831 112.064 4.96808C111.286 4.21785 110.235 3.84184 108.908 3.84006C107.566 3.84006 106.483 4.22381 105.657 4.9913C104.832 5.7588 104.419 6.66116 104.418 7.69839C104.418 8.88089 105.22 10.3504 106.824 12.1069C105.496 12.9857 104.482 13.8163 103.779 14.5987C103.077 15.3811 102.725 16.3156 102.723 17.4023C102.723 18.8235 103.303 19.9495 104.462 20.7801C105.621 21.6107 107.012 22.026 108.636 22.026C109.66 22.0269 110.675 21.8399 111.629 21.4749C112.287 21.2262 112.904 20.8834 113.459 20.4577C113.328 19.9173 113.105 19.4475 113.03 19.2073C113 19.1099 112.982 19.0161 113.057 18.9447C113.065 18.9367 113.075 18.9305 113.086 18.9264C113.096 18.9223 113.108 18.9205 113.12 18.921C113.131 18.9215 113.143 18.9243 113.153 18.9293C113.163 18.9343 113.173 18.9414 113.18 18.9501L114.102 19.8994L115.031 20.8649L115.281 21.1221H118.151L115.562 18.3124ZM106.799 7.81896C106.793 7.55714 106.843 7.29694 106.946 7.05522C107.049 6.8135 107.203 6.59566 107.399 6.41584C107.6 6.2299 107.837 6.08463 108.096 5.98837C108.355 5.89212 108.631 5.84678 108.908 5.85496C109.545 5.85496 110.044 6.03835 110.406 6.40513C110.582 6.58233 110.721 6.79198 110.814 7.02194C110.908 7.25189 110.953 7.49759 110.948 7.74482C110.948 8.68618 110.211 9.73948 108.736 10.9047C107.444 9.56622 106.799 8.53763 106.799 7.81896ZM110.785 19.235C110.139 19.5109 109.44 19.6529 108.735 19.6521C107.819 19.6521 107.044 19.427 106.416 18.9706C106.116 18.7653 105.873 18.4905 105.708 18.171C105.544 17.8515 105.463 17.4971 105.473 17.1397C105.473 16.5815 105.69 16.0358 106.134 15.5079C106.384 15.2123 106.866 14.7934 107.582 14.2495C107.456 13.7136 107.238 13.2394 107.163 12.9991C107.133 12.9027 107.118 12.8053 107.193 12.7374C107.21 12.7223 107.233 12.7144 107.257 12.7154C107.28 12.7164 107.303 12.7262 107.319 12.7428L108.267 13.7386L112.416 18.0766C111.973 18.5821 111.414 18.9789 110.785 19.235Z" fill="white"/>
</svg>
